<?xml version="1.0" encoding="UTF-8" standalone="no"?>
<svg
   xmlns:dc="http://purl.org/dc/elements/1.1/"
   xmlns:cc="http://creativecommons.org/ns#"
   xmlns:rdf="http://www.w3.org/1999/02/22-rdf-syntax-ns#"
   xmlns:svg="http://www.w3.org/2000/svg"
   xmlns="http://www.w3.org/2000/svg"
   xmlns:sodipodi="http://sodipodi.sourceforge.net/DTD/sodipodi-0.dtd"
   xmlns:inkscape="http://www.inkscape.org/namespaces/inkscape"
   width="128.0px"
   height="128.0px"
   viewBox="0 0 128.0 128.0"
   version="1.1"
   id="SVGRoot"
   sodipodi:docname="favicon.svg"
   inkscape:export-filename="/home/haruyuki/dev/2023-summer-h/public/favicon.png"
   inkscape:export-xdpi="384.00003"
   inkscape:export-ydpi="384.00003"
   inkscape:version="1.0.2 (e86c870879, 2021-01-15)">
  <defs
     id="defs869" />
  <sodipodi:namedview
     id="base"
     pagecolor="#ffffff"
     bordercolor="#666666"
     borderopacity="1.0"
     inkscape:pageopacity="0.0"
     inkscape:pageshadow="2"
     inkscape:zoom="5.784036"
     inkscape:cx="76.984192"
     inkscape:cy="63.177665"
     inkscape:document-units="px"
     inkscape:current-layer="layer1"
     inkscape:document-rotation="0"
     showgrid="true"
     inkscape:window-width="1872"
     inkscape:window-height="1048"
     inkscape:window-x="0"
     inkscape:window-y="0"
     inkscape:window-maximized="1"
     showguides="true">
    <inkscape:grid
       type="xygrid"
       id="grid1439" />
  </sodipodi:namedview>
  <metadata
     id="metadata872">
    <rdf:RDF>
      <cc:Work
         rdf:about="">
        <dc:format>image/svg+xml</dc:format>
        <dc:type
           rdf:resource="http://purl.org/dc/dcmitype/StillImage" />
      </cc:Work>
    </rdf:RDF>
  </metadata>
  <g
     inkscape:label="レイヤー 1"
     inkscape:groupmode="layer"
     id="layer1">
    <text
       xml:space="preserve"
       style="font-style:normal;font-weight:normal;font-size:63.4161px;line-height:1.05;font-family:sans-serif;fill:#000000;fill-opacity:1;stroke:none;stroke-width:1.5854"
       x="1.098809"
       y="54.734737"
       id="text1448"
       transform="scale(0.9992885,1.000712)"><tspan
         sodipodi:role="line"
         id="tspan1446"
         x="1.098809"
         y="54.734737"
         style="font-style:normal;font-variant:normal;font-weight:900;font-stretch:normal;font-family:'Zen Maru Gothic';-inkscape-font-specification:'Zen Maru Gothic Heavy';fill:#f0fdf4;fill-opacity:0.333333;stroke:#16a34a;stroke-width:1.5854;stroke-opacity:0.333333">他人</tspan><tspan
         sodipodi:role="line"
         x="1.098809"
         y="121.32907"
         style="font-style:normal;font-variant:normal;font-weight:900;font-stretch:normal;font-family:'Zen Maru Gothic';-inkscape-font-specification:'Zen Maru Gothic Heavy';fill:#f0fdf4;fill-opacity:1;stroke:#16a34a;stroke-width:1.5854;stroke-opacity:1"
         id="tspan1468">り旅</tspan></text>
    <path
       d="m 28.981258,56.804469 q -4.942936,0 -9.06205,-1.9673 -4.119114,-1.903836 -6.590582,-6.15574 -2.471468,-4.251905 -2.471468,-11.169181 -0.06338,-4.949977 1.711016,-10.153801 1.774388,-5.203822 4.879566,-9.64611 -1.584275,0.317307 -2.851694,0.634613 -1.204049,0.253845 -2.915065,0.571151 Q 9.7798513,19.36233 8.1322059,18.283489 6.5479314,17.141186 6.2310765,15.237348 5.8508507,13.333511 6.9281573,11.74698 8.0688349,10.096987 10.033335,9.8431422 11.490867,9.6527585 13.58211,9.3989135 q 2.091242,-0.253845 4.372597,-0.5076901 2.344727,-0.253845 4.499341,-0.4442287 2.154612,-0.253845 3.738886,-0.3807675 1.90113,-0.1269225 3.105179,0.6980737 1.204048,0.7615351 1.647645,2.2211441 0.506968,1.396147 -0.06337,2.982678 -0.570339,1.586532 -2.091242,2.792296 -2.724953,2.157682 -4.689454,5.521128 -1.9645,3.363447 -3.041807,7.234584 -1.077306,3.807675 -1.077306,7.424965 0,3.871137 1.140677,6.155742 1.140678,2.284606 3.105178,3.236524 2.027872,0.951919 4.626082,0.951919 5.069679,0 8.048114,-4.251904 3.041807,-4.251904 3.041807,-14.024937 0,-3.363446 -0.380226,-7.678811 -0.380225,-4.315365 -1.33079,-8.249963 -0.443597,-1.840376 0.633709,-3.3634463 1.077307,-1.5865313 2.851695,-2.03076 1.774388,-0.5076901 3.358662,0.3807675 1.647645,0.8884575 2.281355,2.6019108 0.950564,2.411528 2.724952,4.696134 1.837759,2.284604 4.119113,4.188442 2.344727,1.903837 4.752824,3.236523 1.711017,0.888459 2.281355,2.792296 0.570339,1.840376 -0.316855,3.55383 -0.887193,1.713454 -2.788322,2.348066 -1.90113,0.634613 -3.548776,-0.380768 -1.457532,-0.824996 -3.105178,-2.157682 -1.584274,-1.396147 -2.788322,-2.601911 0.126741,0.634612 0.190112,1.52307 0.06338,0.824996 0.06338,1.52307 0,8.567269 -2.344726,14.723011 -2.344726,6.092279 -6.780694,9.392264 -4.435969,3.299986 -10.836438,3.299986 z"
       style="font-style:normal;font-variant:normal;font-weight:900;font-stretch:normal;font-size:63.4161px;line-height:1.05;font-family:'Zen Maru Gothic';-inkscape-font-specification:'Zen Maru Gothic Heavy';fill:#f0fdf4;fill-opacity:1;stroke:#16a34a;stroke-width:1.5854;stroke-opacity:1"
       id="path1498" />
    <path
       d="m 112.06049,57.629465 q -16.983422,2.348067 -25.728618,-1.967299 -8.745195,-4.251904 -8.745195,-13.707631 0,-5.584589 2.788322,-9.709571 2.788324,-4.188443 7.794632,-7.171121 -0.443598,-2.348067 -1.26742,-5.330746 -0.823823,-3.046139 -1.711017,-6.028818 -0.887193,-3.046141 -1.584274,-5.2038231 -0.506968,-1.8403763 0.443596,-3.55383 1.013937,-1.7769151 2.851695,-2.2846051 1.9645,-0.50769 3.675516,0.50769 1.774388,0.9519188 2.281356,2.792295 0.950565,3.3634464 1.901129,7.4249662 1.013936,3.998059 1.774388,7.742273 2.788322,-1.078841 5.95688,-1.967298 3.16854,-0.888458 6.59057,-1.649993 1.90113,-0.444229 3.54878,0.571151 1.64764,1.01538 2.09124,2.919217 0.4436,1.903838 -0.63371,3.553831 -1.01394,1.58653 -2.91507,1.967298 -7.79463,1.586532 -12.67419,3.49037 -4.816195,1.840375 -7.351034,3.807675 -2.534839,1.967299 -3.485403,3.998058 -0.887194,1.967299 -0.887194,3.934598 0,1.967299 1.140677,3.617292 1.140678,1.649992 3.86563,2.665372 2.724953,1.015379 7.351034,1.142303 4.68945,0.126922 11.72363,-0.95192 1.9645,-0.317305 3.48541,0.95192 1.52089,1.205764 1.77438,3.109601 0.31686,1.967299 -0.88719,3.490369 -1.20405,1.523069 -3.16855,1.840376 z"
       style="font-style:normal;font-variant:normal;font-weight:900;font-stretch:normal;font-size:63.4161px;line-height:1.05;font-family:'Zen Maru Gothic';-inkscape-font-specification:'Zen Maru Gothic Heavy';fill:#f0fdf4;fill-opacity:1;stroke:#16a34a;stroke-width:1.5854;stroke-opacity:1"
       id="path1500" />
    <path
       d="m 29.805081,125.22314 q -1.394162,-1.33269 -1.520904,-3.29999 -0.126741,-1.9673 1.204049,-3.36345 5.069679,-5.45767 7.667889,-12.50187 2.59821,-7.107657 2.59821,-15.421081 0,-4.696132 -1.584275,-6.599969 -1.520903,-1.903838 -4.119113,-1.903838 -2.471469,0 -4.372598,1.649992 -1.90113,1.649993 -2.788323,5.457668 -0.887194,3.807675 -0.380226,10.217262 0.190112,1.903836 -0.950565,3.363446 -1.140677,1.45961 -3.041807,1.64999 -1.901129,0.19039 -3.295291,-0.95192 -1.394162,-1.1423 -1.647645,-2.98268 -0.506968,-3.553825 -0.63371,-7.615345 -0.126742,-4.061521 -0.06338,-7.996118 0.126742,-3.934598 0.380225,-7.234583 0.253485,-3.363446 0.506968,-5.457668 0.253485,-1.967298 1.711017,-3.173062 1.457532,-1.205764 3.422033,-0.951919 1.9645,0.253845 3.105178,1.649992 1.140678,1.396149 0.823822,3.617292 -0.06338,0.634613 -0.316854,2.157682 -0.190113,1.523071 -0.316856,2.601912 0.697082,-1.459609 1.964502,-2.665373 1.33079,-1.269225 2.978435,-2.03076 1.647646,-0.761535 3.295291,-0.761535 7.541146,0 11.026551,4.759594 3.548774,4.696133 3.548774,13.19994 0,10.026881 -3.105178,19.038371 -3.105177,9.0115 -9.315533,15.29416 -1.394162,1.39616 -3.358663,1.45961 -1.9645,0.12692 -3.422032,-1.20575 z"
       style="font-style:normal;font-variant:normal;font-weight:900;font-stretch:normal;font-size:63.4161px;line-height:1.05;font-family:'Zen Maru Gothic';-inkscape-font-specification:'Zen Maru Gothic Heavy';fill:#f0fdf4;fill-opacity:1;stroke:#16a34a;stroke-width:1.5854;stroke-opacity:1"
       id="path1502" />
    <path
       d="m 80.248258,127.00005 q -1.774388,0 -3.041808,-0.95192 -1.204047,-0.88846 -1.33079,-2.79229 -0.06337,-1.84038 1.013936,-3.04615 1.077307,-1.20576 2.851694,-1.33268 1.204048,-0.12693 1.711016,-0.57116 0.506968,-0.44422 0.823823,-2.15768 0.316855,-1.58653 0.570339,-4.2519 0.253484,-2.66537 0.380226,-5.45767 0.190113,-2.7923 0.190113,-4.69613 0.06337,-1.20577 -0.316855,-1.52307 -0.380226,-0.380768 -1.584275,-0.380768 h -0.316854 q -0.380226,4.251908 -1.330791,8.630738 -0.887194,4.37882 -2.344726,8.44034 -1.394161,4.06152 -3.422033,7.42496 -1.013936,1.65 -2.978436,2.09422 -1.901129,0.50769 -3.675517,-0.63461 -1.457532,-0.95192 -1.774388,-2.60191 -0.253483,-1.64999 0.760453,-3.17306 6.527211,-10.02688 6.527211,-27.669106 v -5.965358 h -2.59821 q -1.584275,0 -2.788324,-1.142302 -1.140677,-1.142303 -1.140677,-2.792296 0,-1.649992 1.140677,-2.792295 1.204049,-1.142303 2.788324,-1.142303 h 5.766759 v -6.726892 q 0,-2.030761 1.267419,-3.173062 1.330791,-1.205764 3.105178,-1.205764 1.837759,0 3.105178,1.205764 1.26742,1.142301 1.26742,3.173062 v 6.726892 h 4.309226 q 1.267419,0 2.217984,0.698074 0.950565,0.698074 1.394162,1.776915 1.584274,-2.601911 2.978436,-5.521129 1.457532,-2.919217 2.281355,-5.140361 0.63371,-1.713453 2.344717,-2.284605 1.71103,-0.571151 3.42204,0.126923 1.71102,0.698073 2.21799,2.221143 0.50697,1.459609 -0.19012,3.173062 -0.19011,0.44423 -0.38023,0.95192 -0.19011,0.50769 -0.44359,1.015379 h 17.36365 q 1.58427,0 2.66158,1.142303 1.14068,1.078842 1.14068,2.665372 0,1.586532 -1.14068,2.728835 -1.07731,1.07884 -2.66158,1.07884 h -2.85169 q 0.31685,0.253846 0.57033,0.571152 0.25349,0.253845 0.50697,0.571151 0.8872,1.45961 0.50697,3.109602 -0.31685,1.649993 -1.90113,2.53845 -1.26742,0.761535 -2.78832,1.459608 -1.45753,0.698074 -3.10518,1.396149 0.19011,2.919217 0.76045,5.774973 1.45753,-1.078841 2.8517,-2.094222 1.45753,-1.015379 2.02786,-1.459608 1.39417,-1.078842 3.10518,-0.824996 1.71102,0.190383 2.72495,1.649992 1.07732,1.396148 0.8872,3.04614 -0.12674,1.649988 -1.52091,2.665368 -0.69707,0.50769 -2.09124,1.39616 -1.33079,0.88845 -2.85169,1.84037 -1.5209,0.95191 -2.72496,1.71346 1.45754,3.23652 3.48541,6.15574 2.02787,2.91921 4.75283,5.58459 1.45753,1.45961 1.39416,3.29998 0,1.90384 -1.26742,3.1096 -1.52091,1.39615 -3.54878,1.39615 -1.9645,0 -3.42203,-1.45961 -5.19642,-5.33075 -8.23822,-12.62879 -2.97844,-7.36151 -3.99238,-16.373003 -0.31686,0.126923 -0.69708,0.253845 -0.31686,0.06347 -0.63371,0.190384 v 26.590264 q 0,1.9673 -1.26742,3.17306 -1.26742,1.20577 -3.10518,1.20577 -1.774385,0 -3.105176,-1.20577 -1.267419,-1.20576 -1.267419,-3.17306 V 98.315561 q -1.394162,0.190384 -2.53484,-0.190384 -1.077306,-0.380767 -1.774386,-1.396147 0.380225,1.776915 0.380225,4.44228 -0.06337,5.26729 -0.316854,9.0115 -0.253485,3.74422 -0.63371,7.48843 -0.63371,5.45768 -3.23192,7.36151 -2.59821,1.9673 -7.224292,1.9673 z M 90.577727,94.952115 q -0.633709,-3.046141 2.217985,-4.315366 -0.63371,-0.190383 -1.330791,-0.571151 -1.013936,-0.698074 -1.394161,-1.649992 -0.380226,-1.01538 -0.253484,-2.03076 h -8.238228 v 5.457667 q 3.675517,0.06347 5.830131,0.698074 2.154613,0.634613 3.168548,2.411528 z m 6.083614,-5.203823 q 4.689459,-0.888458 9.505649,-2.601911 4.81619,-1.776915 8.55508,-3.871136 0.12675,0 0.25349,-0.126924 h -13.81488 q -0.8872,1.586532 -1.774387,3.046141 -0.887193,1.459609 -1.711015,2.53845 -0.380227,0.634612 -1.013937,1.01538 z"
       style="font-style:normal;font-variant:normal;font-weight:900;font-stretch:normal;font-size:63.4161px;line-height:1.05;font-family:'Zen Maru Gothic';-inkscape-font-specification:'Zen Maru Gothic Heavy';fill:#f0fdf4;fill-opacity:1;stroke:#16a34a;stroke-width:1.5854;stroke-opacity:1"
       id="path1504" />
  </g>
</svg>
