<?xml version="1.0" encoding="UTF-8" standalone="no"?>
<svg
   xmlns:dc="http://purl.org/dc/elements/1.1/"
   xmlns:cc="http://creativecommons.org/ns#"
   xmlns:rdf="http://www.w3.org/1999/02/22-rdf-syntax-ns#"
   xmlns:svg="http://www.w3.org/2000/svg"
   xmlns="http://www.w3.org/2000/svg"
   xmlns:sodipodi="http://sodipodi.sourceforge.net/DTD/sodipodi-0.dtd"
   xmlns:inkscape="http://www.inkscape.org/namespaces/inkscape"
   width="27.501341mm"
   height="14.731003mm"
   viewBox="0 0 27.501341 14.731003"
   version="1.1"
   id="svg8"
   inkscape:version="1.0.2 (e86c870879, 2021-01-15)"
   sodipodi:docname="logo.svg"
   inkscape:export-filename="/home/haruyuki/dev/2023-summer-h/public/images/logo.png"
   inkscape:export-xdpi="600"
   inkscape:export-ydpi="600">
  <defs
     id="defs2" />
  <sodipodi:namedview
     id="base"
     pagecolor="#ffffff"
     bordercolor="#666666"
     borderopacity="1.0"
     inkscape:pageopacity="0.0"
     inkscape:pageshadow="2"
     inkscape:zoom="2.2707396"
     inkscape:cx="64.996208"
     inkscape:cy="99.710176"
     inkscape:document-units="mm"
     inkscape:current-layer="layer1"
     inkscape:document-rotation="0"
     showgrid="false"
     fit-margin-top="0"
     fit-margin-left="0"
     fit-margin-right="0"
     fit-margin-bottom="0"
     inkscape:window-width="1872"
     inkscape:window-height="1048"
     inkscape:window-x="0"
     inkscape:window-y="0"
     inkscape:window-maximized="1" />
  <metadata
     id="metadata5">
    <rdf:RDF>
      <cc:Work
         rdf:about="">
        <dc:format>image/svg+xml</dc:format>
        <dc:type
           rdf:resource="http://purl.org/dc/dcmitype/StillImage" />
        <dc:title></dc:title>
      </cc:Work>
    </rdf:RDF>
  </metadata>
  <g
     inkscape:label="レイヤー 1"
     inkscape:groupmode="layer"
     id="layer1"
     transform="translate(-113.45946,-89.556817)">
    <g
       aria-label="他人り旅"
       transform="rotate(15)"
       id="text835"
       style="font-style:normal;font-variant:normal;font-weight:normal;font-stretch:normal;font-size:10.5833px;line-height:1.25;font-family:'Zen Maru Gothic';-inkscape-font-specification:'Zen Maru Gothic';letter-spacing:-4.70694px;fill:#f0fdf4;fill-opacity:1;stroke:#15803d;stroke-width:0.264583;stroke-opacity:1">
      <path
         id="path837"
         style="font-style:normal;font-variant:normal;font-weight:900;font-stretch:normal;font-family:'Zen Maru Gothic';-inkscape-font-specification:'Zen Maru Gothic Heavy';fill:#f0fdf4;fill-opacity:1;stroke:#15803d;stroke-width:0.264583;stroke-opacity:1"
         d="m 137.66064,66.274418 c -0.75497,0.213202 -0.95719,-0.627743 -1.0719,-1.178921 -0.30604,-1.142172 -0.61209,-2.284343 -0.91813,-3.426514 -0.1333,1.209195 -2.08178,0.578763 -1.38792,-0.479973 0.44798,-1.381895 0.59563,-2.84089 0.8043,-4.263995 0.77367,-1.126138 1.88147,0.244669 1.34939,1.192905 -0.18093,0.714276 0.21083,1.389023 0.34167,2.081981 0.19243,-0.385081 1.05408,-0.371822 0.70762,-0.916606 -0.13276,-0.675259 -0.47301,-1.335982 -0.41969,-2.026387 0.35408,-0.911659 1.58871,-0.425743 1.55004,0.438358 0.10376,0.387261 0.20753,0.774523 0.3113,1.161784 0.44384,-0.152397 0.63289,-0.410342 0.38613,-0.848828 -0.1271,-0.671971 -0.47912,-1.330585 -0.41684,-2.01564 0.34426,-0.865758 1.51735,-0.40461 1.47944,0.420286 0.12385,0.462228 0.24771,0.924455 0.37156,1.386683 0.9375,-0.825662 2.4097,-0.351636 2.4803,0.955805 0.16717,0.858976 0.64291,1.717007 0.42026,2.601542 -0.21395,0.829818 -1.58101,0.85387 -1.77643,0.706941 0.0443,0.985987 -1.52287,0.919952 -1.48334,-0.04362 -0.18027,-0.672761 -0.36053,-1.345521 -0.5408,-2.018282 -0.43934,0.160307 -0.63026,0.421118 -0.38339,0.859051 0.23827,0.834159 0.42036,1.686909 0.69932,2.507639 0.76556,0.675532 2.17432,0.01721 2.93119,-0.489582 -0.22541,-1.398061 2.06417,-1.524437 1.7069,-0.05471 -0.0718,1.338145 -1.56143,1.733372 -2.62625,2.021237 -0.96935,0.208343 -2.2378,0.673653 -3.0319,-0.157782 -0.61277,-0.933309 -0.71287,-2.087035 -1.04969,-3.134834 0.0933,-0.772651 -0.87138,-0.08455 -0.99588,-0.159204 0.36123,1.382038 0.75678,2.756419 1.09648,4.143261 0.0372,0.335667 -0.20956,0.66045 -0.53374,0.737402 z m 4.02101,-4.988946 c 0.41845,-0.49834 0.57906,-0.951112 0.27503,-1.592138 0.1205,-0.642101 -0.91202,-0.891541 -0.76067,-0.221675 0.16188,0.604605 0.32376,1.209209 0.48564,1.813813 z" />
      <path
         id="path839"
         style="font-style:normal;font-variant:normal;font-weight:900;font-stretch:normal;font-family:'Zen Maru Gothic';-inkscape-font-specification:'Zen Maru Gothic Heavy';fill:#f0fdf4;fill-opacity:1;stroke:#15803d;stroke-width:0.264583;stroke-opacity:1"
         d="m 143.06688,65.951158 c -0.92988,1.063364 -2.21199,-0.65192 -0.99548,-1.311102 1.45306,-1.602868 2.34254,-3.926182 1.60714,-6.056348 -0.1285,-0.672521 -0.48131,-1.33085 -0.40535,-2.01878 0.36501,-0.95056 1.6812,-0.482091 1.64641,0.435128 0.33178,1.425475 0.8153,2.895207 1.98529,3.861904 0.99741,0.952474 2.33429,1.394996 3.59102,1.860494 0.97625,1.104961 -0.80493,1.974238 -1.67125,1.185243 -1.36682,-0.561288 -2.58988,-1.475262 -3.5055,-2.635908 -0.26519,1.731639 -1.05284,3.399198 -2.25228,4.679369 z" />
      <path
         id="path841"
         style="font-style:normal;font-variant:normal;font-weight:900;font-stretch:normal;font-family:'Zen Maru Gothic';-inkscape-font-specification:'Zen Maru Gothic Heavy';fill:#f0fdf4;fill-opacity:1;stroke:#15803d;stroke-width:0.264583;stroke-opacity:1"
         d="m 151.70481,65.298846 c -1.0179,-0.696742 0.22743,-1.749338 0.24111,-2.640129 0.26734,-1.360036 0.18166,-2.850812 -0.43506,-4.104427 -0.98425,-1.212732 -2.29142,0.530031 -1.76602,1.613544 0.46487,0.761471 0.57052,2.631623 -0.81128,2.020314 -0.63987,-0.780322 -0.74798,-1.877576 -1.05333,-2.821914 -0.0554,-0.919992 -0.84975,-2.129603 -0.0464,-2.871906 1.00933,-0.672091 1.29389,1.108204 1.28715,1.243811 0.42159,-1.504159 2.70501,-1.606115 3.49105,-0.361734 0.98833,1.480557 1.1298,3.383645 0.98078,5.11383 -0.22759,1.001499 -0.33762,2.492912 -1.43829,2.891546 -0.15386,0.02195 -0.31297,-0.01078 -0.44973,-0.08294 z" />
      <path
         id="path843"
         style="font-style:normal;font-variant:normal;font-weight:900;font-stretch:normal;font-family:'Zen Maru Gothic';-inkscape-font-specification:'Zen Maru Gothic Heavy';fill:#f0fdf4;fill-opacity:1;stroke:#15803d;stroke-width:0.264583;stroke-opacity:1"
         d="m 155.57242,66.143869 c -1.07768,0.307293 -1.16517,-1.313465 -0.18102,-1.452551 0.0105,-0.969504 -0.0896,-2.251675 -0.62171,-3.005357 -0.40557,0.668499 0.19417,2.14883 -0.0867,3.127547 0.17349,0.911252 -0.77929,2.446555 -1.626,1.346974 -0.0951,-0.830742 0.38517,-1.665246 0.26351,-2.53029 -0.005,-1.269252 -0.34419,-2.499028 -0.67663,-3.713869 -0.58922,0.363233 -1.55789,-0.09493 -1.15926,-0.850781 0.30111,-0.420732 0.88468,-0.382572 1.33076,-0.553795 -0.0804,-0.578701 -0.55077,-1.232363 -0.13381,-1.764457 0.62487,-0.639711 1.3714,0.08152 1.38331,0.784709 0.0389,0.490775 0.22864,0.720461 0.70333,0.456489 0.74213,0.01292 1.01604,0.285008 1.05931,-0.684613 -0.16495,-0.886697 0.69755,-2.374998 1.5233,-1.281102 -0.0679,0.71663 0.0671,0.843721 0.72024,0.56578 0.777,-0.180634 1.53587,-0.470007 2.32567,-0.573858 1.02739,0.270353 0.41575,1.397414 -0.37874,1.36698 1.24015,0.657981 -0.49982,1.476086 -0.50347,2.05163 0.29412,1.669137 1.07587,-1.323744 2.00472,-0.1393 0.81585,0.910145 -1.2433,1.515237 -0.79162,2.205537 0.50638,0.830481 1.75064,1.005242 2.03716,1.931717 -0.13745,1.339559 -1.69563,0.65791 -2.22656,-0.03956 -1.02562,-0.915368 -1.71982,-2.140958 -2.22209,-3.406506 -0.39302,0.225723 0.0726,0.775856 0.0789,1.153037 0.29605,1.138803 0.62644,2.269946 0.90096,3.413555 0.0724,1.011559 -1.53748,0.969527 -1.50291,-0.01713 -0.32818,-1.224786 -0.65636,-2.449571 -0.98454,-3.674357 -0.49063,0.233143 -0.97697,-0.324649 -0.56951,0.425147 0.28589,1.208999 0.66792,2.437407 0.63358,3.688342 -0.0693,0.659587 -0.72011,1.024203 -1.30013,1.170087 z m 0.28302,-5.608938 c -0.37134,-0.460375 0.54863,-0.871574 -0.23867,-0.911185 -0.16518,-0.689343 -0.73259,-0.257951 -1.21751,-0.177778 -0.58787,-0.03284 -0.22293,0.48443 -0.17156,0.820655 0.22323,0.364681 1.26653,-0.327385 1.62774,0.268308 z m 0.75677,-1.101219 c 0.85192,-0.397632 2.26933,-1.327717 2.549,-1.822494 -0.70269,0.188285 -1.40538,0.376571 -2.10807,0.564857 -0.12307,0.424943 -0.19959,0.879355 -0.44093,1.257637 z" />
    </g>
  </g>
</svg>
